# xmcd CD database file
#
# Track frame offsets:
#	150
#	28769
#	59408
#	78970
#	106855
#	131354
#	162120
#	185668
#	205624
#	230218
#
# Disc length: 3377 seconds
#
# Revision: 1
# Processed by: cddbd v1.5.2PL0 Copyright (c) Steve Scherf et al.
# Submitted via: CDex 1.70beta2
#
DISCID=7f0d2f0a
DTITLE=Roland P Young - Istet Serenade 
DYEAR=2010
DGENRE=Jazz
TTITLE0=Twirling 
TTITLE1=Curls 
TTITLE2=Dearest 
TTITLE3=Wetness 
TTITLE4=Eclipse 
TTITLE5=Night Air 
TTITLE6=Airlessly 
TTITLE7=Dessert Cave 
TTITLE8=Chrome 
TTITLE9=Tea Bells 
EXTD=YEAR: 2010
EXTT0=
EXTT1=
EXTT2=
EXTT3=
EXTT4=
EXTT5=
EXTT6=
EXTT7=
EXTT8=
EXTT9=
PLAYORDER=
